<svg width="64" height="64" viewBox="0 0 64 64" fill="none" xmlns="http://www.w3.org/2000/svg">
  <rect width="64" height="64" rx="8" fill="#20925F" fill-opacity="0.1"/>
  <path d="M32 14C22.0589 14 14 22.0589 14 32C14 41.9411 22.0589 50 32 50C41.9411 50 50 41.9411 50 32C50 22.0589 41.9411 14 32 14Z" fill="#20925F"/>
  <path d="M32 18C24.268 18 18 24.268 18 32C18 39.732 24.268 46 32 46C39.732 46 46 39.732 46 32C46 24.268 39.732 18 32 18ZM32 44C25.373 44 20 38.627 20 32C20 25.373 25.373 20 32 20C38.627 20 44 25.373 44 32C44 38.627 38.627 44 32 44Z" fill="white"/>
  <path d="M32 24L34.5 29L40 30L36 34L37 40L32 37L27 40L28 34L24 30L29.5 29L32 24Z" fill="white"/>
</svg>
