<svg width="64" height="64" viewBox="0 0 64 64" fill="none" xmlns="http://www.w3.org/2000/svg">
  <rect width="64" height="64" rx="8" fill="#4CAF50" fill-opacity="0.1"/>
  <circle cx="32" cy="32" r="18" fill="#4CAF50"/>
  <path d="M32 18C24.268 18 18 24.268 18 32C18 39.732 24.268 46 32 46C39.732 46 46 39.732 46 32C46 24.268 39.732 18 32 18ZM32 44C25.373 44 20 38.627 20 32C20 25.373 25.373 20 32 20C38.627 20 44 25.373 44 32C44 38.627 38.627 44 32 44Z" fill="#388E3C"/>
  <path d="M32 22C27.5817 22 24 25.5817 24 30C24 34.4183 27.5817 38 32 38C36.4183 38 40 34.4183 40 30C40 25.5817 36.4183 22 32 22ZM32 36C28.6863 36 26 33.3137 26 30C26 26.6863 28.6863 24 32 24C35.3137 24 38 26.6863 38 30C38 33.3137 35.3137 36 32 36Z" fill="white"/>
  <path d="M26 42L24 40C28 36 36 36 40 40L38 42C35 39 29 39 26 42Z" fill="white"/>
  <path d="M38 22L40 24C36 28 28 28 24 24L26 22C29 25 35 25 38 22Z" fill="white"/>
</svg>
