<svg width="64" height="64" viewBox="0 0 64 64" fill="none" xmlns="http://www.w3.org/2000/svg">
  <rect width="64" height="64" rx="8" fill="#009688" fill-opacity="0.1"/>
  <path d="M14 32C14 22.0589 22.0589 14 32 14C41.9411 14 50 22.0589 50 32C50 41.9411 41.9411 50 32 50C22.0589 50 14 41.9411 14 32Z" fill="#009688"/>
  <path d="M32 20C25.3726 20 20 25.3726 20 32C20 38.6274 25.3726 44 32 44C38.6274 44 44 38.6274 44 32C44 25.3726 38.6274 20 32 20Z" fill="#00796B"/>
  <path d="M32 24C27.5817 24 24 27.5817 24 32C24 36.4183 27.5817 40 32 40C36.4183 40 40 36.4183 40 32C40 27.5817 36.4183 24 32 24Z" fill="#004D40"/>
  <path d="M32 22L35 25H29L32 22Z" fill="#FFFFFF"/>
  <path d="M29 25V28L26 32L23 28V25L26 28L29 25Z" fill="#FFFFFF"/>
  <path d="M35 25V28L38 32L41 28V25L38 28L35 25Z" fill="#FFFFFF"/>
  <path d="M26 32L29 35V39L26 36L23 39V35L26 32Z" fill="#FFFFFF"/>
  <path d="M38 32L35 35V39L38 36L41 39V35L38 32Z" fill="#FFFFFF"/>
  <path d="M29 39H35L32 42L29 39Z" fill="#FFFFFF"/>
</svg>
