<?xml version="1.0" encoding="UTF-8" standalone="no"?>
<!-- Created with Inkscape (http://www.inkscape.org/) -->

<svg
   version="1.1"
   id="svg1"
   width="409.32654"
   height="374.34412"
   viewBox="0 0 409.32654 374.34412"
   sodipodi:docname="logo-removebg-preview.png"
   xmlns:inkscape="http://www.inkscape.org/namespaces/inkscape"
   xmlns:sodipodi="http://sodipodi.sourceforge.net/DTD/sodipodi-0.dtd"
   xmlns="http://www.w3.org/2000/svg"
   xmlns:svg="http://www.w3.org/2000/svg">
  <defs
     id="defs1" />
  <sodipodi:namedview
     id="namedview1"
     pagecolor="#505050"
     bordercolor="#eeeeee"
     borderopacity="1"
     inkscape:showpageshadow="0"
     inkscape:pageopacity="0"
     inkscape:pagecheckerboard="0"
     inkscape:deskcolor="#505050"
     showgrid="false">
    <inkscape:page
       x="0"
       y="0"
       width="409.32654"
       height="374.34412"
       id="page2"
       margin="0"
       bleed="0" />
  </sodipodi:namedview>
  <g
     inkscape:groupmode="layer"
     inkscape:label="Image"
     id="g1"
     transform="translate(-49.162292,-75.772826)">
    <path
       style="fill:#ffffff"
       d="m 245.98883,449.25871 c -32.12663,-3.15496 -63.06474,-15.56448 -92,-36.90194 -9.39927,-6.93121 -29.98688,-28.10348 -36.5,-37.53655 -5.87242,-8.50513 -9.98243,-15.19163 -9.9905,-16.25335 -0.007,-0.92356 2.8159,-1.25 10.80949,-1.25 h 10.81899 l 3.43101,4.90935 c 9.25681,13.24535 27.94946,31.1467 41.93295,40.15783 3.57393,2.30309 6.72306,4.46865 6.99806,4.81236 0.275,0.34371 6.125,3.38856 13,6.76633 24.36876,11.97265 44.40464,17.10274 70.58005,18.07165 19.0519,0.70523 33.97243,-0.82674 50.28729,-5.16328 19.49005,-5.18052 33.3698,-11.08247 47.38593,-20.14946 3.745,-2.42263 7.08247,-4.40478 7.41659,-4.40478 0.97342,0 14.14092,-10.9288 21.59831,-17.92623 3.76676,-3.53442 10.29078,-10.73442 14.49784,-16 4.20706,-5.26557 8.09248,-9.87892 8.63428,-10.25188 0.9755,-0.6715 6.43684,-0.31809 7.22231,0.46737 0.86748,0.86748 -10.21713,16.81061 -19.61378,28.21074 -9.03143,10.95704 -30.53195,29.59787 -40.05999,34.73178 -1.34686,0.72571 -4.43348,2.59664 -6.85917,4.15761 -2.42569,1.56098 -7.35182,4.15789 -10.94696,5.77092 -3.59514,1.61303 -7.91048,3.56728 -9.58966,4.34279 -24.65785,11.38793 -58.27607,16.46116 -89.05304,13.43874 z m -55.1809,-98.6353 -141.1809,-0.31343 -0.338102,-2.24655 c -0.185955,-1.23561 -0.16459,-3.25906 0.04748,-4.49656 l 0.385576,-2.25 H 74.60541 c 13.68588,0 24.88342,-0.36457 24.88342,-0.81016 0,-0.44559 -1.35841,-2.19957 -3.01868,-3.89774 -1.66027,-1.69817 -3.92847,-5.7211 -5.04045,-8.93984 -3.48926,-10.10006 -7.70579,-28.46365 -8.84534,-38.5227 -2.3761,-20.97428 -0.7863,-51.75228 3.47781,-67.32956 0.90334,-3.3 2.03203,-7.62465 2.50821,-9.61033 3.0679,-12.79345 15.17298,-38.67974 21.16845,-45.26801 2.0625,-2.26642 3.75,-4.7535 3.75,-5.52683 0,-0.77332 1.125,-2.881 2.5,-4.68372 1.375,-1.80272 2.5,-3.75769 2.5,-4.34439 0,-0.5867 0.9,-1.06672 2,-1.06672 1.1,0 2,-0.43588 2,-0.96862 0,-0.53273 -0.7435,-0.6833 -1.65223,-0.33459 -1.25635,0.48211 -1.0915,-0.1244 0.68806,-2.53139 2.25098,-3.04461 3.84269,-4.39589 2.36868,-2.01089 -0.44208,0.7153 -0.27432,0.88306 0.44098,0.44098 0.63498,-0.39244 1.15451,-1.58697 1.15451,-2.65451 0,-1.06754 0.3375,-1.88769 0.75,-1.82256 2.20816,0.34866 3.40224,-0.27929 2.92013,-1.53566 -0.49685,-1.29478 1.83316,-3.10515 3.54388,-2.75351 0.39271,0.0807 0.42874,-0.59666 0.0801,-1.50529 -0.42534,-1.10841 -0.24896,-1.41411 0.53599,-0.92899 0.64343,0.39769 1.1699,0.35759 1.1699,-0.0891 0,-1.56322 9.91956,-11.30586 11.51117,-11.30586 0.88377,0 1.34592,-0.42222 1.02698,-0.93826 -0.31893,-0.51605 1.56701,-2.52943 4.19099,-4.47417 2.62397,-1.94475 5.6275,-4.33503 6.6745,-5.31174 1.28779,-1.20133 1.63007,-1.29056 1.05804,-0.27583 -0.75164,1.33333 -0.62983,1.33333 1.09627,0 1.06802,-0.825 3.39645,-2.9625 5.17429,-4.75 1.77783,-1.7875 4.14038,-3.25 5.25009,-3.25 1.10972,0 2.01767,-0.45 2.01767,-1 0,-0.55 0.40478,-1 0.89951,-1 0.49473,0 3.23995,-1.575 6.10049,-3.499998 2.86054,-1.925 6.30732,-3.5 7.65951,-3.5 1.35219,0 2.22108,-0.384197 1.93086,-0.853772 -0.63406,-1.025945 3.71717,-3.146228 6.45668,-3.146228 1.07412,0 1.95295,-0.476558 1.95295,-1.059017 0,-0.582459 0.45,-0.780902 1,-0.440983 0.55,0.339919 1,0.141476 1,-0.440983 0,-0.582459 0.69083,-1.059017 1.53518,-1.059017 0.84435,0 2.53185,-0.640254 3.75,-1.422788 1.21815,-0.782533 3.78982,-1.570033 5.71482,-1.75 1.925,-0.179966 3.76549,-0.687255 4.08998,-1.127307 0.32448,-0.440052 1.56198,-0.873314 2.75,-0.962804 1.18801,-0.08949 2.16002,-0.543505 2.16002,-1.008922 0,-0.465417 0.38355,-0.609166 0.85234,-0.319441 0.46878,0.289725 3.05628,-0.262602 5.75,-1.227392 2.69371,-0.964791 6.43226,-1.69574 8.30789,-1.624332 1.87562,0.07141 4.57562,-0.425894 6,-1.105117 4.26358,-2.033118 34.07727,-2.743506 43.55862,-1.037897 4.38286,0.788438 8.27256,1.245819 8.64376,1.016401 0.37121,-0.229417 2.25913,0.244801 4.19538,1.053818 1.93625,0.809017 4.94326,1.579354 6.68226,1.711861 1.73899,0.132506 3.38368,0.599936 3.65487,1.038732 0.27119,0.438797 0.89772,0.547728 1.39229,0.242069 0.49456,-0.305658 3.05097,0.45054 5.6809,1.68044 2.62993,1.2299 5.18633,2.125263 5.68089,1.989696 0.49456,-0.135567 1.61956,0.07453 2.5,0.466882 0.88044,0.392352 1.8258,0.774353 2.1008,0.848891 4.18349,1.133921 5.16854,1.822074 3.88213,2.71204 -0.9957,0.688842 -0.77658,0.786699 0.78371,0.349999 1.19122,-0.333401 2.45527,-0.137879 2.80902,0.434494 0.35375,0.572372 1.44776,1.040677 2.43115,1.040677 0.98338,0 2.82568,0.9 4.09399,2 1.26831,1.1 2.68717,2.05625 3.15301,2.125 1.8746,0.276656 2.58241,0.568616 8.56207,3.531738 3.41829,1.69388 5.93079,3.36406 5.58333,3.71152 -0.34746,0.34746 0.11826,0.63174 1.03492,0.63174 0.91667,0 1.66667,0.45 1.66667,1 0,0.55 0.69083,1 1.53518,1 2.28697,0 6.46482,3.02056 6.46482,4.67403 0,0.7942 0.45345,1.16376 1.00767,0.82123 1.06849,-0.66036 4.24484,1.9189 3.40158,2.76215 -0.27253,0.27253 0.22227,0.77095 1.09956,1.1076 1.06184,0.40746 1.38508,0.19804 0.96694,-0.62646 -0.34547,-0.6812 0.2503,-0.24519 1.32392,0.96893 1.07363,1.21411 2.23291,1.92661 2.57619,1.58333 0.34328,-0.34328 0.62414,-0.067 0.62414,0.61395 0,1.5422 2.89516,4.53341 3.65368,3.77489 0.72374,-0.72374 5.34632,3.88811 5.34632,5.33391 0,0.60746 0.45,0.82636 1,0.48644 0.55,-0.33992 1,0.11008 1,1 0,0.88992 0.45,1.33992 1,1 0.55,-0.33992 1,-0.11492 1,0.5 0,0.61492 0.51953,0.79695 1.15451,0.40451 0.73036,-0.45139 0.88242,-0.27329 0.41391,0.48479 -0.75436,1.22058 1.13556,4.33781 2.29489,3.78518 0.35018,-0.16692 1.63311,0.73803 2.85096,2.01101 1.21784,1.27298 1.98864,2.31451 1.71287,2.31451 -0.27577,0 1.33122,1.9072 3.57107,4.23822 2.23986,2.33102 3.61549,4.39055 3.05696,4.57672 -0.55853,0.18618 -3.61193,-0.45635 -6.78534,-1.42784 -7.64447,-2.34025 -31.75929,-2.82081 -42.00709,-0.83712 -10.84657,2.09959 -22.4522,5.19031 -34.2183,9.11273 -10.49859,3.49988 -35.83176,13.22714 -41.54444,15.95194 -7.84149,3.7402 -34.98021,14.2066 -35.6936,13.7657 -0.44352,-0.27411 -0.8064,-0.11501 -0.8064,0.35355 0,0.46856 -2.3625,1.62021 -5.25,2.55921 -2.8875,0.93901 -8.76043,2.85102 -13.05095,4.24892 -17.7226,5.77424 -29.17271,7.73929 -45.69905,7.84283 -13.28369,0.0832 -16.78689,-0.24038 -24.5,-2.26317 -10.6833,-2.80172 -19.77905,-7.11605 -29.89911,-14.18188 -4.0764,-2.84614 -7.91429,-4.86415 -8.52864,-4.48446 -2.03273,1.25629 -6.87913,12.04522 -10.38788,23.12521 -6.99347,22.08412 -9.18471,37.91078 -8.36521,60.41944 0.78476,21.55462 3.91302,36.81616 12.09364,59 2.53525,6.875 4.71703,12.95 4.84838,13.5 0.13135,0.55 -1.17776,1.13759 -2.90913,1.30575 -2.89405,0.28108 -4.27597,2.01525 -4.3384,5.44425 -0.008,0.4125 25.16639,0.75 55.94199,0.75 h 55.95564 c -1.30497,-3.95197 -2.85556,-7.81282 -4.78521,-11.50359 -2.45634,-4.58301 -2.76022,-11.04292 -0.7462,-15.86314 0.75893,-1.81637 3.45893,-5.00613 6,-7.08835 3.47227,-2.84526 4.62013,-4.47468 4.62013,-6.55839 0,-3.24171 -1.99178,-4.32035 -5.50868,-2.98323 l -2.49132,0.9472 v -6.47525 c 0,-6.24027 0.0907,-6.47525 2.5,-6.47525 1.375,0 2.5,-0.45 2.5,-1 0,-0.55 -1.125,-1 -2.5,-1 -1.96978,0 -2.5,-0.50723 -2.5,-2.39159 0,-1.76005 0.72619,-2.59017 2.75,-3.14357 l 2.75,-0.75198 -2.5,-0.64597 c -1.76783,-0.4568 -2.59267,-1.43979 -2.81642,-3.35644 -0.27147,-2.32538 0.0482,-2.71045 2.25,-2.71045 1.41153,0 2.56642,-0.45 2.56642,-1 0,-0.55 -1.125,-1 -2.5,-1 -2.11111,0 -2.5,-0.46667 -2.5,-3 0,-2.51399 0.39545,-3 2.44098,-3 1.34254,0 2.7191,-0.45 3.05902,-1 0.36058,-0.58342 -0.65628,-1 -2.44098,-1 -2.88767,0 -3.05902,-0.21786 -3.05902,-3.88922 0,-7.40967 4.77679,-9.97013 18.78138,-10.06723 4.39636,-0.0305 6.44082,-0.45901 6.81265,-1.42798 0.29219,-0.76144 0.84056,-6.00154 1.21861,-11.64468 0.5342,-7.97399 1.05863,-10.49363 2.35354,-11.30758 3.3833,-2.12669 4.55271,0.67547 5.30474,12.71138 l 0.7077,11.32631 13.12549,0.6643 c 7.21902,0.36537 13.46471,1.00352 13.87931,1.41812 1.06922,1.06922 5.64494,19.05488 5.00942,19.6904 -0.28939,0.2894 -1.35117,0.52618 -2.35951,0.52618 -5.49715,0 2.21149,14.11907 9.31513,17.06149 2.81073,1.16425 3.15051,0.97918 9.63252,-5.24645 3.69546,-3.54929 8.18152,-7.30668 9.96902,-8.34976 1.7875,-1.04307 3.25,-2.24947 3.25,-2.68089 0,-1.22708 -1.00141,-0.94664 -4.63197,1.29717 l -3.36803,2.08156 v -5.47457 c 0,-6.4178 0.38025,-6.68855 9.39373,-6.68855 5.64949,0 6.41483,-0.2563 8.21168,-2.75 1.08983,-1.5125 2.80511,-6.35 3.81172,-10.75 2.60469,-11.38538 2.6944,-11.5 9.00057,-11.5 h 5.34732 l 0.70483,7.52154 c 0.38766,4.13685 0.56165,10.95223 0.38666,15.14529 l -0.31816,7.62374 3.98082,1.19337 c 8.93453,2.6784 22.48083,11.34211 22.48083,14.3779 0,5.23993 -3.53286,5.28336 -11.23786,0.13816 -7.25206,-4.84274 -9.23482,-5.13636 -5.06467,-0.75 1.69939,1.7875 5.54818,7.975 8.55285,13.75 6.85152,13.16865 7.68061,18.25929 4.90686,30.12848 -1.076,4.60434 -2.18373,10.28402 -2.46162,12.62152 l 8.6496,4.3174 c 5.03516,0.0371 26.36734,0.10907 47.40484,0.16005 l 38.25,0.0926 v 4.33995 4.33995 h -57.35331 c -31.54432,0 -60.00682,0.13949 -63.25,0.30998 -1.5214,0.08 -35.20005,0.24459 -147.07759,-0.003 z m 115.29179,-11.05654 c -0.28813,-0.9625 -1.29838,-4.88788 -2.24499,-8.72306 -2.50973,-10.16815 -8.43313,-15.62148 -8.05523,-7.41598 0.35171,7.63688 -5.82752,8.06902 -7.73704,0.54108 -0.84018,-3.31231 -2.57363,-5.09856 -2.57363,-2.65204 0,0.6225 -5.69787,1 -15.09362,1 -14.44756,0 -15.11691,-0.0891 -15.63771,-2.08062 -0.40386,-1.54436 -1.08852,-1.93449 -2.65638,-1.51365 -1.16176,0.31183 -2.67479,0.57311 -3.36229,0.58062 -0.6875,0.008 -1.25,0.95325 -1.25,2.10165 -8.70253,24.55484 2.23199,20.89825 26.06739,19.912 31.02566,0 33.03504,-0.10805 32.5435,-1.75 z m 123.38911,-6.29066 c 0,-0.57237 1.96906,-5.85987 4.3757,-11.75 5.38304,-13.17477 9.0307,-27.0993 11.05713,-42.20934 2.31194,-17.23901 2.46507,-17.55604 2.0342,-4.21134 -0.21823,6.75876 -0.65896,12.71287 -0.9794,13.23136 -0.32044,0.51849 -0.76664,3.46967 -0.99155,6.55818 -0.2249,3.08852 -1.5026,9.5094 -2.83932,14.26864 -1.33671,4.75924 -2.7195,9.90899 -3.07285,11.44389 -0.35335,1.53491 -1.56162,5.24741 -2.68503,8.25 -1.70338,4.55267 -2.44581,5.45927 -4.47073,5.45927 -1.33548,0 -2.42815,-0.4683 -2.42815,-1.04066 z m 17.19495,-74.45934 c 0.0204,-1.65 0.2445,-2.20394 0.49804,-1.23097 0.25354,0.97297 0.23687,2.32297 -0.0371,3 -0.27393,0.67703 -0.48137,-0.11903 -0.46099,-1.76903 z m -162.19495,-3.71565 c 0,-0.66861 2.11181,-3.3597 4.69291,-5.98021 l 4.69291,-4.76455 -2.26811,-2.4143 c -1.24747,-1.32786 -1.86088,-2.66599 -1.36314,-2.97361 1.15766,-0.71547 11.53269,9.72773 10.5954,10.66502 -0.38588,0.38587 -1.77951,-0.31106 -3.09696,-1.54874 l -2.39537,-2.25033 -4.99974,5.24118 c -5.31115,5.56763 -5.8579,5.94336 -5.8579,4.02554 z m -38,-47.78147 v -10.99712 l 3.61636,-4.00288 c 1.989,-2.20158 4.014,-4.00288 4.5,-4.00288 1.82751,0 0.77827,2.72677 -2.11636,5.5 -2.97116,2.84655 -3,2.97812 -3,13.68709 0,8.94481 -0.25915,10.81291 -1.5,10.81291 -1.2424,0 -1.5,-1.88857 -1.5,-10.99712 z"
       id="path1"
       sodipodi:nodetypes="ssssscssssssssssssssssssccsscsssssscsssssssssssssscsssssssssssssssssssssssssssssssssssssssssssssssssssssssssssssssssssssssssssssssssssssssscscssssscsssssscssssssssssssssscssssssssscssssscsscssssssssscccssccsssssssscssssssssssssssssssssscsssscssscssssss" />
  </g>
</svg>
